<?xml version="1.0" encoding="UTF-8"?>
<svg version="1.1" xmlns="http://www.w3.org/2000/svg" width="512" height="512">
<path d="M0 0 C0.80598633 0.12358887 1.61197266 0.24717773 2.44238281 0.37451172 C35.75982644 5.73676123 65.81884505 21.25548978 85.87109375 48.91015625 C101.35070942 71.3769012 107 97.00218741 107 124 C74.66 124 42.32 124 9 124 C8.01 115.09 8.01 115.09 7 106 C4.22004133 96.27014464 0.35958739 88.13067177 -8.75390625 83.03125 C-18.85429809 78.3938527 -30.79926152 76.81163172 -41.4375 80.5625 C-50.04677069 84.61309129 -54.58639201 91.33451934 -58 100 C-60.89230131 109.44720714 -61.40838022 118.4238273 -61.25 128.25 C-61.23802144 129.65778877 -61.22696837 131.06558569 -61.21679688 132.47338867 C-61.12852499 142.00981756 -60.85310071 151.54113331 -60.35644531 161.06542969 C-59.88593734 170.4121873 -60 179.58472849 -60 189 C-30.3 189 -0.6 189 30 189 C30 214.41 30 239.82 30 266 C1.62 266 -26.76 266 -56 266 C-55.67 272.93 -55.34 279.86 -55 287 C-54.2720458 309.58057941 -56.59352191 328.5273651 -69 348 C-69.33 348.33 -69.66 348.66 -70 349 C16.625 349.495 16.625 349.495 105 350 C105 376.4 105 402.8 105 430 C1.71 430 -101.58 430 -208 430 C-208 403.6 -208 377.2 -208 350 C-192.16 349.505 -192.16 349.505 -176 349 C-168.82160767 345.08235031 -168.82160767 345.08235031 -165.125 339.375 C-164.75632813 338.61960937 -164.38765625 337.86421875 -164.0078125 337.0859375 C-161.03848568 327.99381276 -160.72234877 318.94940162 -160.8046875 309.45703125 C-160.8075174 308.20742111 -160.81034729 306.95781097 -160.81326294 305.67033386 C-160.82248816 302.38734978 -160.84037912 299.1045715 -160.8626709 295.82165527 C-160.88332411 292.45599905 -160.8924163 289.09031151 -160.90234375 285.72460938 C-160.92256839 279.14957848 -160.96173589 272.57504907 -161 266 C-176.84 266 -192.68 266 -209 266 C-209 240.59 -209 215.18 -209 189 C-194.15 189 -179.3 189 -164 189 C-164.144375 184.85695312 -164.28875 180.71390625 -164.4375 176.4453125 C-164.55250376 173.11712679 -164.66716086 169.78892953 -164.78158569 166.46072388 C-164.90199858 162.96108879 -165.02300511 159.46147667 -165.14550781 155.96191406 C-165.28642064 151.93561154 -165.4245209 147.90921663 -165.5625 143.8828125 C-165.60624756 142.64387238 -165.64999512 141.40493225 -165.69506836 140.12844849 C-167.00206117 101.59681458 -161.19004539 65.0098254 -134.05859375 35.8046875 C-99.9999485 0.01990359 -46.95816652 -7.21746027 0 0 Z " fill="#000000" transform="translate(307,42)"/>
</svg>
